<svg version="1.1" xmlns="http://www.w3.org/2000/svg" xmlns:xlink="http://www.w3.org/1999/xlink" width="248" height="212.07257" viewBox="0,0,248,212.07257"><g transform="translate(-116,-180.33334)"><g data-paper-data="{&quot;isPaintingLayer&quot;:true}" fill-rule="nonzero" stroke-linejoin="miter" stroke-miterlimit="10" stroke-dasharray="" stroke-dashoffset="0" style="mix-blend-mode: normal"><path d="M231.66667,282v-101.66666h16.66667v101.66667z" fill="#f9a83a" stroke="none" stroke-width="0" stroke-linecap="butt"/><path d="M364,328.24286c0,31.20409 -55.51669,56.5 -124,56.5c-68.48331,0 -124,-25.29591 -124,-56.5c0,-16.41638 0.27018,-51.00172 0.27018,-51.00172c0,0 60.00513,-6.47953 123.72982,-5.49828c78.48803,1.20858 123.74109,7.07268 123.74109,7.07268c0,0 0.25891,36.80325 0.25891,49.42733z" fill="#fafafa" stroke="#000000" stroke-width="0" stroke-linecap="butt"/><text transform="translate(148.47289,356.69826) scale(2.10045,2.10045)" font-size="40" xml:space="preserve" fill="#f9aa39" fill-rule="nonzero" stroke="#f9aa39" stroke-width="2" stroke-linecap="butt" stroke-linejoin="miter" stroke-miterlimit="10" stroke-dasharray="" stroke-dashoffset="0" font-family="Handwriting" font-weight="normal" text-anchor="start" style="mix-blend-mode: normal"><tspan x="0" dy="0">PRO</tspan></text><path d="M363.66667,290.24286l-247.66667,-1.66667l0.27018,-11.33505c0,0 18.60494,-2.00902 46.09726,-3.62029c4.60352,-0.2698 2.45624,-26.02845 7.51253,-26.26465c4.82084,-0.2252 29.49341,24.90334 34.64481,24.72875c15.12641,-0.51265 18.84076,-0.59823 35.47522,-0.34208c22.44113,0.34555 25.66533,0.23835 42.39171,1.0992c4.83684,0.24893 27.97301,-25.40753 32.30169,-25.14202c4.62205,0.28351 6.90053,27.32309 10.92719,27.61149c24.77186,1.77423 38.12049,3.50401 38.12049,3.50401z" fill="#fa9200" stroke="#000000" stroke-width="0" stroke-linecap="butt"/><path d="M358.16667,310.33333c0,0 1.31183,10.01411 -2,23c-3.31183,12.98589 -13.66667,20.66667 -13.66667,20.66667" fill="none" stroke="#f9a83a" stroke-width="5" stroke-linecap="round"/></g></g></svg>