<svg version="1.1" xmlns="http://www.w3.org/2000/svg" xmlns:xlink="http://www.w3.org/1999/xlink" width="374.05525" height="139.87024" viewBox="0,0,374.05525,139.87024"><g transform="translate(-52.97238,-110.06488)"><g data-paper-data="{&quot;isPaintingLayer&quot;:true}" fill-rule="nonzero" stroke="none" stroke-width="1" stroke-linecap="butt" stroke-linejoin="miter" stroke-miterlimit="10" stroke-dasharray="" stroke-dashoffset="0" style="mix-blend-mode: normal"><g><path d="M393.55612,246.53746c-4.53021,0.56627 -7.36159,0.56628 -8.49415,1.13255c-2.26511,1.13255 -7.36159,2.26511 -13.59063,2.26511c-7.92787,0 -15.28947,-2.83138 -21.51851,-7.36159h-4.53021c-1.69883,0 -2.83138,0 -4.53021,-0.56627c-6.22904,2.26511 -11.8918,2.2651 -15.28946,2.2651h-1.13255c-7.92787,0.56627 -15.85574,-1.13255 -22.65106,-4.53021c-3.39766,1.13255 -6.22904,1.69883 -9.6267,1.69883l-20.95222,0.56628c-9.6267,0 -18.12085,-3.39766 -24.91616,-9.6267c-2.83138,0 -5.66276,-0.56628 -7.92786,-1.13255c-3.39766,3.96393 -7.92787,7.36159 -13.59063,10.19297c-10.75925,5.09649 -22.65106,5.66276 -33.97658,1.13255c-1.13255,-0.56627 -2.83138,-1.13255 -3.96393,-1.69882l-13.02435,1.69882h-3.96394c-1.69883,0.56627 -2.83138,1.69884 -3.96393,2.26511c-8.49415,3.96393 -16.42201,3.96393 -19.81967,3.96393h-2.83138c-9.6267,0 -19.2534,-2.83138 -26.61499,-7.92786c-2.26511,0.56627 -5.09648,1.13255 -7.36159,1.13255c-5.09649,3.39766 -11.32553,5.66277 -18.12085,6.22904h-2.2651c-18.68712,0 -33.97658,-14.15691 -35.67541,-32.84403v-0.56627c0,-2.83138 -0.56627,-9.06042 0,-15.85574c0,-3.39766 0.56627,-8.49415 0.56627,-9.6267c0,-4.53021 1.13255,-9.06042 2.83138,-13.59063c-1.13256,-4.53021 -0.56627,-9.06042 0,-13.59063v-1.69883c0.56627,-3.96394 1.69883,-11.8918 5.66277,-19.81967c7.36159,-13.59064 20.95223,-22.08478 36.24169,-22.08478c5.09649,-2.83138 10.19297,-3.96393 15.85573,-3.96393h1.69883c11.32553,0.56628 21.5185,6.22904 27.74754,15.28946c5.09649,-4.53021 11.32553,-7.36159 18.12085,-8.49414c13.59063,-1.69883 24.91616,-2.26511 34.54286,-0.56628c5.09649,-4.53021 11.89181,-7.92787 18.68712,-8.49415l14.72319,-2.2651h4.53021c8.49415,0 16.98829,3.39766 23.7836,9.06042h1.13256l21.5185,-0.56628c9.06042,0 16.98829,-0.56627 18.68712,-0.56627h2.83138c7.92787,0 16.42201,2.83138 22.65105,7.92786c6.22904,-4.53021 13.59064,-6.79532 21.51851,-6.79532h7.36159c5.66276,-3.39766 11.8918,-5.66276 18.68712,-5.66276l18.12084,-0.56628h0.56628c19.2534,0 35.10913,15.85574 35.67541,35.10913c0,9.06042 -2.83138,16.98829 -8.49415,23.78361v16.42202c5.09648,5.66277 7.92787,13.02435 8.49415,20.95222c1.13256,19.2534 -13.59063,35.67541 -33.4103,37.37424z" fill="#ffffff"/><path d="M392.42357,226.15152c-7.3616,0.56627 -11.8918,1.13255 -13.02436,1.69882l-0.56627,0.56628c-1.69883,0.56627 -3.96393,1.69882 -6.79532,1.69882c-3.39766,0 -7.36159,-1.13255 -10.19297,-3.96393c-1.13256,-1.13255 -2.26511,-2.26511 -2.83138,-3.39766h-13.02436c-2.26511,0 -4.53021,-0.56627 -6.22904,-1.69883c-0.56628,0.56627 -1.69883,0.56628 -2.26511,1.13255c-4.53021,2.26511 -8.49414,2.26511 -11.32552,2.26511h-2.83139c-8.49415,0 -15.28946,-2.83139 -19.81967,-7.92787c-2.83138,2.83138 -6.79532,4.53021 -10.75925,4.53021l-20.95222,0.56627c-7.3616,0 -14.15691,-5.66277 -15.28947,-12.45808c-2.83138,1.69883 -5.66276,2.83138 -9.06042,2.83138c-3.39766,0 -6.79532,-1.13255 -9.6267,-2.83138c-0.56627,-0.56627 -1.13255,-1.13255 -1.69882,-1.13255c-1.69883,1.13255 -3.96393,1.13255 -6.22904,1.13255h-1.69883c-2.26511,6.79531 -6.22904,11.32553 -12.45808,14.15691c-2.83138,1.13255 -6.22905,2.26511 -9.06043,2.26511c-2.83138,0 -6.22904,-0.56627 -9.06042,-1.69883c-2.83138,-1.13255 -5.09649,-2.83138 -6.79532,-4.53021c-1.13255,0.56627 -2.26511,0.56628 -3.39766,1.13255l-16.42201,2.26511h-2.26511c-1.69883,0 -2.83138,0 -4.53021,-0.56627c-2.26511,2.26511 -5.09649,3.39765 -7.36159,4.53021c-4.53021,2.26511 -8.49415,2.26511 -11.32553,2.26511h-2.83138c-10.19297,0 -18.12085,-4.53021 -22.65105,-10.75925c-4.53021,2.83138 -10.19297,4.53021 -15.28946,4.53021h-3.39766c0,0.56627 -0.56628,0.56628 -0.56628,1.13255c-2.83138,2.83138 -6.79532,5.09649 -10.75925,5.09649h-1.13255c-7.92787,0 -14.72318,-6.22904 -15.28946,-14.72318v-0.56627c0,-2.83138 -0.56628,-7.92787 0,-13.59063c0,-3.96393 0.56628,-10.19298 0.56628,-10.19298c0,-3.96393 1.69883,-7.36159 3.96393,-10.19297c-2.26511,-4.53021 -2.83138,-9.6267 -1.69883,-15.28946v-1.13255c0.56628,-3.39766 1.13255,-8.49415 3.39766,-13.59063c3.96394,-7.36159 11.32553,-11.32553 19.81967,-11.32553h3.96393c2.83138,-2.26511 6.22904,-3.96393 10.19298,-3.96393c8.49415,0 15.28946,7.36159 15.28946,15.85574v6.22904c2.83138,-1.13255 6.22904,-1.69883 9.6267,-1.69883c1.69883,0 2.83138,0.00001 4.53021,0.56628c2.26511,-2.83138 5.66276,-4.53021 9.06042,-5.09649c0.56627,-1.13255 1.13255,-1.69883 1.69883,-2.83138c2.26511,-3.39766 6.22904,-5.66276 10.19298,-6.22904c3.39766,-0.56628 10.19297,-1.13255 18.12084,-1.13255c9.06042,0 16.42201,1.13256 22.08478,3.96394c1.69883,-6.22904 6.22905,-10.75925 13.02436,-11.89181l14.72319,-2.26511h2.26511c4.53021,0 8.49415,1.69883 11.32553,5.09649c1.13255,1.13255 2.83139,3.39766 3.39766,5.09649l0.56627,1.69883c2.83138,-1.69883 5.66276,-2.83138 9.06042,-2.83138l22.08478,-0.56628c10.75925,0 20.38595,-0.56627 20.38595,-1.13255h1.13255c3.96393,0 8.49415,1.69883 11.32553,4.53021c2.26511,2.26511 3.96393,5.09649 4.53021,8.49415h1.13255c1.69883,0 2.83138,0 4.53021,0.56627c2.26511,-2.83138 5.66276,-4.53021 9.06042,-5.09648c2.83138,-3.96394 7.92787,-7.3616 13.59063,-7.3616h14.72319c2.83138,-3.39766 6.79532,-5.66276 11.8918,-5.66276h18.12085c8.49415,0 15.28946,6.79531 15.85574,15.28946c0,6.22904 -3.39766,11.8918 -8.49415,14.15691v34.54286c4.53021,2.26511 7.92787,7.36159 8.49415,13.02436c0.56628,8.49415 -6.22904,15.85574 -14.72318,16.42201z" fill="#f9a83a"/><path d="M242.92661,176.88547l-11.32553,1.69883l3.96394,-20.38595z" fill="#f9a83a"/><path d="M100.22496,178.01802c6.79532,1.13255 20.95222,3.39766 20.95222,17.55457c0,3.96393 -2.2651,8.49415 -5.66276,11.32553c-3.96394,3.39766 -9.06042,5.09649 -14.15691,3.96393c-3.96394,-0.56627 -7.36159,-2.26511 -9.6267,-3.96393v6.22904c0,1.69883 -1.69882,3.39766 -3.39766,3.39766c-1.69883,0 -3.39766,-1.69883 -3.39766,-3.39766c0,-0.56627 -0.56628,-5.66277 0,-12.45808c0.56628,-3.96393 0.56628,-10.75925 0.56628,-10.75925c0,-1.69883 1.69883,-3.39765 3.39766,-3.39765c1.69883,0 3.39766,1.69882 3.39766,3.39765v1.13255c0,1.69883 0.56628,4.53021 1.13255,6.79532c1.13255,2.26511 4.53021,3.96393 5.66276,4.53021c1.13255,0 1.69883,0.56628 2.83138,0.56628c3.39766,0.56627 6.79532,0 9.06042,-2.26511c2.26511,-1.69883 3.39766,-3.96393 3.39766,-6.22904c0,-5.66277 -6.22904,-7.36159 -15.28946,-9.06042c-8.49415,-1.69883 -11.8918,-8.49415 -10.75925,-19.2534v-1.13255c0.56628,-5.66277 1.69883,-15.28946 12.45808,-13.59063c3.96394,0 7.3616,2.83138 10.19298,5.66276v-6.22904c0,-1.69883 1.69882,-3.39766 3.39766,-3.39766c1.69883,0 3.39766,1.69882 3.39766,3.39766c0,0.56628 -1.13256,22.08478 -1.13256,22.08478c-0.56628,1.69883 -2.2651,3.39766 -3.96393,2.83138c-1.69883,-0.56627 -2.83138,-1.69882 -2.83138,-2.83138v-2.26511c-0.56628,-1.69883 -0.56628,-3.39766 -1.69883,-5.66276c-1.13255,-3.39766 -3.39766,-5.09649 -4.53021,-6.22904c-1.13255,-1.13255 -2.2651,-1.69883 -3.39766,-1.69883c-3.39766,0 -3.96393,1.69883 -5.09649,8.49415v1.13255c-1.13255,7.92787 1.13255,10.75925 5.09649,11.32552M195.35939,168.39133c1.69883,-2.26511 2.83138,-4.53021 2.83138,-5.66277v-1.13255c-1.69883,-2.83138 -9.6267,-3.39766 -18.68712,-3.39766v15.85574c3.39766,-0.56628 6.79532,-1.13256 9.06043,-2.26511l1.69883,-0.56628c0.56627,0 2.26511,-0.56627 2.83138,-1.13255c1.13255,-0.56628 1.69883,-1.13255 2.26511,-1.69883M215.17907,198.97025c1.69883,0.56627 2.83138,2.2651 0.56628,3.39765c-1.13255,5.09649 -3.39766,6.79532 -6.22904,8.49415c-3.39766,1.69883 -6.22904,0.56627 -8.49415,0c-2.83138,-1.13255 -4.53022,-3.96393 -5.09649,-5.09649c-1.13255,-2.83138 -1.69883,-9.6267 -1.69883,-11.32553c-0.56627,-8.49415 -1.69882,-11.8918 -2.83138,-13.59063c-0.56627,-1.13255 -1.69882,-1.69883 -2.83138,-1.69883h-1.13256c-2.83138,1.13255 -5.66276,1.69883 -9.06042,2.26511v19.81968l5.09649,-0.56628c1.69883,-0.56627 3.96393,1.13255 3.96393,2.83138c0.56627,1.69883 -1.13255,3.96394 -2.83138,3.96394l-16.42201,2.26511c-1.69883,0.56627 -3.96393,-1.13256 -3.96393,-2.83139c-0.56627,-1.69883 1.13255,-3.96393 2.83138,-3.96393l4.53021,-0.56628v-19.81967h-1.69883c-1.69883,0 -3.39766,-1.69883 -3.39766,-3.39766c0,-1.69883 1.69883,-3.39766 3.39766,-3.39766h1.69883v-15.85574c-1.69883,0 -3.39766,0.56628 -5.09649,0.56628c-1.69883,0.56628 -3.96393,-1.13255 -3.96393,-2.83138c-0.56627,-1.69883 1.13256,-3.96393 2.83139,-3.96393c7.92787,-1.13255 32.27775,-3.96394 37.94052,5.66276c2.26511,3.96394 1.13255,8.49414 -2.83139,14.15691c0,0 -1.69883,1.69883 -3.39766,2.83138c2.83138,2.83138 5.09649,8.49415 5.09649,18.68712c0,2.83138 0.56628,7.36159 1.13256,8.49414c0.56627,0.56627 1.13255,1.69883 1.13255,1.69883c1.69883,0.56627 2.83139,1.13255 3.39766,0.56627c0.56627,-0.56627 1.69882,-0.56627 2.83138,-4.53021c0.56627,-1.69883 2.83139,-2.83138 4.53021,-2.26511M338.62731,188.211c1.69883,0 3.39765,1.13255 3.39765,2.26511v5.66276c-0.56628,1.13255 -1.13255,5.09649 -2.26511,7.36159c-1.13256,1.69883 -1.69882,2.83138 -2.83138,3.96394c-1.69883,1.69883 -3.39766,2.83138 -5.09649,3.39765c-2.26511,1.13255 -4.53021,1.13255 -6.79532,1.13255h-1.69883c-12.45808,0 -16.42201,-10.19298 -16.98829,-15.28946v-15.85574c0.56628,-8.49415 3.39766,-13.59064 7.3616,-16.42202c5.09648,-3.39766 11.8918,-0.56628 13.59063,0.56628c1.69883,1.13255 3.39765,1.69883 4.53021,2.83138v-6.22904c0,-1.69883 1.69883,-3.39766 3.39766,-3.39766c1.69883,0 3.39766,1.69883 3.39766,3.39766v15.28946c0,1.69883 -0.56628,2.83139 -2.26511,3.39766c-1.69883,0 -3.39766,-0.56628 -3.96393,-1.69883c-0.56628,0 -3.39766,-5.09649 -7.92787,-6.79532c-3.96393,-1.13255 -6.22904,-1.69883 -7.92787,-0.56628c-2.26511,1.69883 -3.39766,5.66276 -3.96393,11.32553v14.72319c0,1.69883 1.13255,9.06042 10.19297,8.49415h2.26511c2.26511,0 2.83138,0 3.96393,-0.56627c1.13256,-0.56627 2.26511,-1.13256 2.83138,-1.69883c1.13256,-1.13255 1.69883,-1.69883 2.26511,-2.83138c0.56628,-0.56627 1.13255,-2.83138 1.13255,-4.53021v-4.53021c0,-1.69883 1.69883,-3.39766 3.39766,-3.39766M394.68867,210.86205c0,1.69883 -1.13255,3.39766 -2.83138,4.53021c-7.92787,0.56627 -14.72319,1.13255 -16.42202,2.26511c-2.26511,0.56627 -3.96393,1.13255 -5.09648,0c-1.69883,-1.13255 -1.69883,-3.39766 -0.56628,-4.53021c1.69883,-2.26511 5.09648,-2.2651 9.62669,-3.39765v-26.04872l-20.38594,3.39766v17.55456h5.66276c1.69883,0 3.39766,1.69883 3.39766,3.39766c0,1.69883 -1.69883,3.39766 -3.39766,3.39766l-18.68712,-0.56628c-1.69883,0 -3.39765,-1.69882 -3.39765,-3.39765c0,-1.69883 1.69882,-3.39766 3.39765,-3.39766h5.66277v-45.86838h-5.66277c-1.69883,0 -3.39765,-1.69883 -3.39765,-3.39766c0,-1.69883 1.69882,-3.39766 3.39765,-3.39766h18.12085c1.69883,0 3.39766,1.69882 3.39766,3.39766c0,1.69883 -1.69883,3.39766 -3.39766,3.39766h-5.66277v21.5185l20.38595,-3.39766v-23.78361h-5.66277c-1.69883,0 -3.39765,-1.69882 -3.39765,-3.39766c0,-1.69883 1.69882,-3.39766 3.39765,-3.39766l18.12085,-0.56628c1.69883,0 3.39766,1.69882 3.39766,3.39766c0,1.69883 -1.69883,3.39766 -3.39766,3.39766h-5.09649c0.56628,38.50679 0.56628,50.39859 0.56628,56.06136c1.69883,-0.56627 3.39765,-0.56627 4.53021,-0.56627c1.69883,0 3.39766,1.69882 3.39766,3.39765" fill="#ffffff"/><path d="M242.92661,176.88547l-7.36159,-18.68712l-3.96394,20.38595zM261.61373,184.24706c1.69883,-0.56627 3.39766,0.56628 3.96393,1.69883c0.56628,1.69883 -0.56628,3.96394 -2.26511,4.53021c-6.22904,2.26511 -12.45808,5.09649 -14.15691,7.36159c-1.13255,1.13255 -3.39766,1.69883 -5.09649,0.56627c-1.13255,-1.13255 -1.69883,-2.83138 -0.56628,-4.53021c1.69883,-1.69883 2.83139,-2.26511 5.66277,-3.96393l-3.39766,-8.49415l-15.85574,2.83138l-0.56628,5.09649c2.26511,0 3.39766,1.69883 3.39766,3.39766c0,2.26511 -1.69883,3.39765 -3.39766,3.39765l-16.98829,-0.56627c-2.26511,0 -3.39766,-1.69883 -3.39766,-3.39766c0,-2.26511 1.69883,-3.39765 3.39766,-3.39765l10.19297,0.56627c1.69883,-7.92787 6.79532,-33.41031 7.92787,-39.63935c-4.53021,0.56628 -10.19298,1.13255 -10.19298,1.13255c-2.26511,0.56628 -3.96393,-1.13255 -3.96393,-2.83138c-0.56627,-2.26511 1.13255,-3.96393 2.83138,-3.96393l14.72319,-1.69883c1.13255,0 2.26511,0.56628 2.83139,1.13255c0.56627,0 1.13255,1.13255 1.13255,1.69883l13.02436,31.1452l4.53021,10.75925c3.39766,-1.69883 5.09649,-2.26511 6.22904,-2.83139" fill="#ffffff"/><path d="M302.38562,149.70421c1.13256,0 2.26511,0.56628 2.26511,1.69883c1.13256,1.13255 1.13255,1.69882 1.13255,2.83138c-0.56628,4.53021 -0.56627,12.45808 -0.56627,12.45808c0,1.13255 -0.56627,2.83138 -1.69883,3.39766c-1.69883,1.13255 -3.39765,0.56627 -4.53021,-1.13256c0,-0.56628 -0.56628,-1.69882 -0.56628,-5.09649v-6.79532c-3.39766,0 -8.49414,0.56628 -14.1569,0.56628v44.73583h6.79532c1.69883,0 3.39766,1.69883 3.39766,3.39766c0,1.69883 -1.69883,3.39766 -3.39766,3.39766l-20.95223,0.56628c-1.69883,0 -3.39766,-1.69883 -3.39766,-3.39766c0,-1.69883 1.69883,-3.39766 3.39766,-3.39766h7.36159v-44.73583h-14.72318c1.13256,4.53021 2.26511,13.59063 2.26511,13.59063c0,1.69883 -1.13255,3.39766 -2.83138,3.39766c-1.69883,0.56627 -3.96393,-1.13255 -3.96393,-2.83138l-2.83138,-16.98829c-0.56627,-1.13255 0,-2.26511 0.56627,-2.83139c1.13256,-0.56628 1.69882,-1.13255 2.83138,-1.13255l22.08478,-0.56628c11.32553,-0.56628 21.5185,-1.13255 21.5185,-1.13255M157.98515,191.60866c1.69883,0 3.39766,1.69882 3.39766,2.83138v5.66277c-0.56627,1.13255 -1.13255,5.09649 -2.2651,7.36159c-1.13255,1.69883 -1.69883,2.83138 -2.83139,3.96393c-1.69883,1.69883 -3.39766,2.83138 -5.09649,3.39766c-2.26511,1.13255 -4.53021,1.13255 -6.79531,1.13255h-1.69883c-13.02436,0 -16.98829,-10.19298 -17.55457,-15.28947v-15.85574c0.56628,-8.49415 3.39766,-13.59063 7.3616,-16.42201c5.66277,-2.83138 11.8918,-0.56628 14.15691,0.56627c1.69883,0.56628 3.39766,1.69883 4.53021,2.83138v-6.22904c0,-1.69883 1.69883,-3.39766 3.39766,-3.39766c1.69883,0 3.39766,1.69883 3.39766,3.39766v15.28946c0,1.69883 -0.56628,2.83138 -2.26511,3.39765c-1.69883,0 -3.39766,-0.56627 -3.96394,-1.69882c0,0 -3.39766,-5.09649 -7.92787,-6.79532c-3.96393,-1.13255 -6.22904,-1.69883 -7.92787,-0.56628c-2.26511,1.69883 -3.39765,5.66277 -3.96393,11.32553v14.72319c0,1.69883 1.13255,8.49415 10.19297,8.49415h2.26511c2.26511,0 2.83137,-0.00001 3.96393,-0.56628c1.13255,-0.56627 2.26511,-1.13255 2.83139,-1.69882c1.13255,-1.13255 1.69883,-1.69883 2.26511,-2.83139c0.56627,-1.13255 1.13255,-3.39765 1.13255,-4.53021v-5.09649c0,-1.69883 1.69883,-3.39766 3.39766,-3.39766" fill="#ffffff"/></g></g></g></svg>